<svg xmlns="http://www.w3.org/2000/svg" width="240" height="240" viewBox="0 0 240 240">
  <defs>
    <linearGradient id="tg" x1="120" y1="0" x2="120" y2="238" gradientUnits="userSpaceOnUse">
      <stop offset="0" stop-color="#2AABEE"/>
      <stop offset="1" stop-color="#229ED9"/>
    </linearGradient>
  </defs>
  <circle cx="120" cy="120" r="120" fill="url(#tg)"/>
  <path fill="#fff" d="M53.61,118.72c34.98-15.24,58.31-25.29,69.97-30.14,33.32-13.86,40.24-16.27,44.76-16.35,1,0,3.22.23,4.66,1.4a5.07,5.07,0,0,1,1.71,3.26,21.32,21.32,0,0,1,.2,4.74c-1.83,19.36-9.81,66.34-13.87,88-1.72,9.17-5.1,12.24-8.37,12.54-7.11.65-12.51-4.7-19.4-9.22-10.78-7.06-16.87-11.46-27.33-18.36-12.09-8-4.25-12.35,2.64-19.5,1.8-1.87,33.16-30.4,33.77-33a1.27,1.27,0,0,0-.57-2.18,1.78,1.78,0,0,0-2.56-.25q-5.37,3.66-52.09,34.44a23.32,23.32,0,0,1-13.39,5c-4.41-.09-12.89-2.49-19.2-4.54-7.73-2.51-13.88-3.84-13.34-8.11C44.72,123.16,47.78,120.89,53.61,118.72Z"/>
</svg>
